<?xml version="1.0" encoding="UTF-8" standalone="no"?>
<!DOCTYPE svg PUBLIC "-//W3C//DTD SVG 1.1//EN"
 "http://www.w3.org/Graphics/SVG/1.1/DTD/svg11.dtd">
<!-- Generated by graphviz version 2.28.0 (20110507.0327)
 -->
<!-- Title: G Pages: 1 -->
<svg width="390pt" height="2454pt"
 viewBox="0.00 0.00 390.00 2454.00" xmlns="http://www.w3.org/2000/svg" xmlns:xlink="http://www.w3.org/1999/xlink">
<g id="graph1" class="graph" transform="scale(1 1) rotate(0) translate(4 2450)">
<title>G</title>
<polygon fill="white" stroke="white" points="-4,5 -4,-2450 387,-2450 387,5 -4,5"/>
<g id="graph2" class="cluster"><title>cluster_global</title>
<polyline fill="none" stroke="gray" points="20,-44 362,-44 "/>
<path fill="none" stroke="gray" d="M362,-44C368,-44 374,-50 374,-56"/>
<polyline fill="none" stroke="gray" points="374,-56 374,-2426 "/>
<path fill="none" stroke="gray" d="M374,-2426C374,-2432 368,-2438 362,-2438"/>
<polyline fill="none" stroke="gray" points="362,-2438 20,-2438 "/>
<path fill="none" stroke="gray" d="M20,-2438C14,-2438 8,-2432 8,-2426"/>
<polyline fill="none" stroke="gray" points="8,-2426 8,-56 "/>
<path fill="none" stroke="gray" d="M8,-56C8,-50 14,-44 20,-44"/>
<text text-anchor="middle" x="191" y="-2425.2" font-family="Times New Roman,serif" font-size="11.00" fill="gray">global</text>
</g>
<!-- \\AdminController -->
<g id="node2" class="node"><title>\\AdminController</title>
<a xlink:href="apps.admin.front.main.html" xlink:title="AdminController" target="_parent">
<polygon fill="none" stroke="black" points="332,-1708 214,-1708 214,-1672 332,-1672 332,-1708"/>
<text text-anchor="middle" x="273" y="-1687.2" font-family="Courier,monospace" font-size="11.00">AdminController</text>
</a>
</g>
<!-- \\WController -->
<g id="node31" class="node"><title>\\WController</title>
<a xlink:href="system.WCore.WController.html" xlink:title="«abstract»&lt;br/&gt;WController" target="_parent">
<polygon fill="none" stroke="black" points="108,-2032 16,-2032 16,-1996 108,-1996 108,-2032"/>
<text text-anchor="start" x="28" y="-2017.7" font-family="Courier,monospace" font-size="11.00">«abstract»</text>
<text text-anchor="start" x="24.5" y="-2006.7" font-family="Courier,monospace" font-size="11.00">WController</text>
</a>
</g>
<!-- \\AdminController&#45;&gt;\\WController -->
<g id="edge3" class="edge"><title>\\AdminController&#45;&gt;\\WController</title>
<path fill="none" stroke="black" d="M213.839,-1698.46C201.554,-1702.46 189.461,-1708.35 180,-1717 99.3216,-1790.74 73.5109,-1927.14 65.9118,-1985.88"/>
<polygon fill="none" stroke="black" points="62.4246,-1985.57 64.6957,-1995.92 69.3737,-1986.41 62.4246,-1985.57"/>
</g>
<!-- \\AdminModel -->
<g id="node3" class="node"><title>\\AdminModel</title>
<a xlink:href="apps.admin.front.model.html" xlink:title="AdminModel" target="_parent">
<polygon fill="none" stroke="black" points="315,-2356 231,-2356 231,-2320 315,-2320 315,-2356"/>
<text text-anchor="middle" x="273" y="-2335.2" font-family="Courier,monospace" font-size="11.00">AdminModel</text>
</a>
</g>
<!-- \\ContactController -->
<g id="node4" class="node"><title>\\ContactController</title>
<a xlink:href="apps.contact.front.main.html" xlink:title="ContactController" target="_parent">
<polygon fill="none" stroke="black" points="338.5,-2410 207.5,-2410 207.5,-2374 338.5,-2374 338.5,-2410"/>
<text text-anchor="middle" x="273" y="-2389.2" font-family="Courier,monospace" font-size="11.00">ContactController</text>
</a>
</g>
<!-- \\ContactController&#45;&gt;\\WController -->
<g id="edge5" class="edge"><title>\\ContactController&#45;&gt;\\WController</title>
<path fill="none" stroke="black" d="M207.316,-2381.7C197.253,-2377.78 187.668,-2372.4 180,-2365 86.7093,-2275.03 67.7946,-2108.85 63.9674,-2042.47"/>
<polygon fill="none" stroke="black" points="67.4561,-2042.16 63.4583,-2032.34 60.4649,-2042.51 67.4561,-2042.16"/>
</g>
<!-- \\ContactModel -->
<g id="node5" class="node"><title>\\ContactModel</title>
<a xlink:href="apps.contact.front.model.html" xlink:title="ContactModel" target="_parent">
<polygon fill="none" stroke="black" points="322,-2248 224,-2248 224,-2212 322,-2212 322,-2248"/>
<text text-anchor="middle" x="273" y="-2227.2" font-family="Courier,monospace" font-size="11.00">ContactModel</text>
</a>
</g>
<!-- \\ContactView -->
<g id="node6" class="node"><title>\\ContactView</title>
<a xlink:href="apps.contact.front.view.html" xlink:title="ContactView" target="_parent">
<polygon fill="none" stroke="black" points="318.5,-1222 227.5,-1222 227.5,-1186 318.5,-1186 318.5,-1222"/>
<text text-anchor="middle" x="273" y="-1201.2" font-family="Courier,monospace" font-size="11.00">ContactView</text>
</a>
</g>
<!-- \\WView -->
<g id="node41" class="node"><title>\\WView</title>
<a xlink:href="system.WCore.WView.html" xlink:title="WView" target="_parent">
<polygon fill="none" stroke="black" points="89,-1357 35,-1357 35,-1321 89,-1321 89,-1357"/>
<text text-anchor="middle" x="62" y="-1336.2" font-family="Courier,monospace" font-size="11.00">WView</text>
</a>
</g>
<!-- \\ContactView&#45;&gt;\\WView -->
<g id="edge7" class="edge"><title>\\ContactView&#45;&gt;\\WView</title>
<path fill="none" stroke="black" d="M227.281,-1212.72C211.689,-1216.88 194.483,-1222.79 180,-1231 141.968,-1252.55 106.281,-1288.68 84.5516,-1313.16"/>
<polygon fill="none" stroke="black" points="81.6691,-1311.14 77.7345,-1320.98 86.9448,-1315.74 81.6691,-1311.14"/>
</g>
<!-- \\NewsAdminController -->
<g id="node7" class="node"><title>\\NewsAdminController</title>
<a xlink:href="apps.news.admin.main.html" xlink:title="NewsAdminController" target="_parent">
<polygon fill="none" stroke="black" points="345.5,-2302 200.5,-2302 200.5,-2266 345.5,-2266 345.5,-2302"/>
<text text-anchor="middle" x="273" y="-2281.2" font-family="Courier,monospace" font-size="11.00">NewsAdminController</text>
</a>
</g>
<!-- \\NewsAdminController&#45;&gt;\\WController -->
<g id="edge9" class="edge"><title>\\NewsAdminController&#45;&gt;\\WController</title>
<path fill="none" stroke="black" d="M200.091,-2269.52C192.84,-2266.18 185.965,-2262.06 180,-2257 111.845,-2199.15 80.2733,-2092.43 68.6257,-2041.91"/>
<polygon fill="none" stroke="black" points="72.0151,-2041.03 66.4366,-2032.02 65.1805,-2042.54 72.0151,-2041.03"/>
</g>
<!-- \\NewsAdminModel -->
<g id="node8" class="node"><title>\\NewsAdminModel</title>
<a xlink:href="apps.news.admin.model.html" xlink:title="NewsAdminModel" target="_parent">
<polygon fill="none" stroke="black" points="328.5,-2086 217.5,-2086 217.5,-2050 328.5,-2050 328.5,-2086"/>
<text text-anchor="middle" x="273" y="-2065.2" font-family="Courier,monospace" font-size="11.00">NewsAdminModel</text>
</a>
</g>
<!-- \\NewsAdminView -->
<g id="node9" class="node"><title>\\NewsAdminView</title>
<a xlink:href="apps.news.admin.view.html" xlink:title="NewsAdminView" target="_parent">
<polygon fill="none" stroke="black" points="325,-1654 221,-1654 221,-1618 325,-1618 325,-1654"/>
<text text-anchor="middle" x="273" y="-1633.2" font-family="Courier,monospace" font-size="11.00">NewsAdminView</text>
</a>
</g>
<!-- \\NewsAdminView&#45;&gt;\\WView -->
<g id="edge11" class="edge"><title>\\NewsAdminView&#45;&gt;\\WView</title>
<path fill="none" stroke="black" d="M220.757,-1629.31C206.258,-1625.34 191.351,-1619.03 180,-1609 105.706,-1543.35 76.8163,-1422.08 67.1856,-1367.24"/>
<polygon fill="none" stroke="black" points="70.6075,-1366.48 65.5086,-1357.19 63.703,-1367.63 70.6075,-1366.48"/>
</g>
<!-- \\NewsController -->
<g id="node10" class="node"><title>\\NewsController</title>
<a xlink:href="apps.news.front.main.html" xlink:title="NewsController" target="_parent">
<polygon fill="none" stroke="black" points="328.5,-2194 217.5,-2194 217.5,-2158 328.5,-2158 328.5,-2194"/>
<text text-anchor="middle" x="273" y="-2173.2" font-family="Courier,monospace" font-size="11.00">NewsController</text>
</a>
</g>
<!-- \\NewsController&#45;&gt;\\WController -->
<g id="edge13" class="edge"><title>\\NewsController&#45;&gt;\\WController</title>
<path fill="none" stroke="black" d="M217.224,-2165.47C204.389,-2161.53 191.204,-2156.2 180,-2149 136.065,-2120.77 99.3092,-2071.27 79.2957,-2040.7"/>
<polygon fill="none" stroke="black" points="82.2126,-2038.76 73.8675,-2032.24 76.3204,-2042.54 82.2126,-2038.76"/>
</g>
<!-- \\NewsModel -->
<g id="node11" class="node"><title>\\NewsModel</title>
<a xlink:href="apps.news.front.model.html" xlink:title="NewsModel" target="_parent">
<polygon fill="none" stroke="black" points="311.5,-1924 234.5,-1924 234.5,-1888 311.5,-1888 311.5,-1924"/>
<text text-anchor="middle" x="273" y="-1903.2" font-family="Courier,monospace" font-size="11.00">NewsModel</text>
</a>
</g>
<!-- \\NewsView -->
<g id="node12" class="node"><title>\\NewsView</title>
<a xlink:href="apps.news.front.view.html" xlink:title="NewsView" target="_parent">
<polygon fill="none" stroke="black" points="308.5,-1492 237.5,-1492 237.5,-1456 308.5,-1456 308.5,-1492"/>
<text text-anchor="middle" x="273" y="-1471.2" font-family="Courier,monospace" font-size="11.00">NewsView</text>
</a>
</g>
<!-- \\NewsView&#45;&gt;\\WView -->
<g id="edge15" class="edge"><title>\\NewsView&#45;&gt;\\WView</title>
<path fill="none" stroke="black" d="M237.292,-1467.78C219.392,-1463.61 197.669,-1457.01 180,-1447 141.968,-1425.45 106.281,-1389.32 84.5516,-1364.84"/>
<polygon fill="none" stroke="black" points="86.9448,-1362.26 77.7345,-1357.02 81.6691,-1366.86 86.9448,-1362.26"/>
</g>
<!-- \\NewsletterAdminController -->
<g id="node13" class="node"><title>\\NewsletterAdminController</title>
<a xlink:href="apps.newsletter.admin.main.html" xlink:title="NewsletterAdminController" target="_parent">
<polygon fill="none" stroke="black" points="365.5,-2140 180.5,-2140 180.5,-2104 365.5,-2104 365.5,-2140"/>
<text text-anchor="middle" x="273" y="-2119.2" font-family="Courier,monospace" font-size="11.00">NewsletterAdminController</text>
</a>
</g>
<!-- \\NewsletterAdminController&#45;&gt;\\WController -->
<g id="edge17" class="edge"><title>\\NewsletterAdminController&#45;&gt;\\WController</title>
<path fill="none" stroke="black" d="M201.793,-2103.96C194.307,-2101.29 186.91,-2098.3 180,-2095 148.033,-2079.73 115.169,-2056.16 92.4433,-2038.37"/>
<polygon fill="none" stroke="black" points="94.5581,-2035.58 84.5496,-2032.1 90.2062,-2041.06 94.5581,-2035.58"/>
</g>
<!-- \\NewsletterAdminModel -->
<g id="node14" class="node"><title>\\NewsletterAdminModel</title>
<a xlink:href="apps.newsletter.admin.model.html" xlink:title="NewsletterAdminModel" target="_parent">
<polygon fill="none" stroke="black" points="349,-1762 197,-1762 197,-1726 349,-1726 349,-1762"/>
<text text-anchor="middle" x="273" y="-1741.2" font-family="Courier,monospace" font-size="11.00">NewsletterAdminModel</text>
</a>
</g>
<!-- \\NewsletterAdminView -->
<g id="node15" class="node"><title>\\NewsletterAdminView</title>
<a xlink:href="apps.newsletter.admin.view.html" xlink:title="NewsletterAdminView" target="_parent">
<polygon fill="none" stroke="black" points="345.5,-1330 200.5,-1330 200.5,-1294 345.5,-1294 345.5,-1330"/>
<text text-anchor="middle" x="273" y="-1309.2" font-family="Courier,monospace" font-size="11.00">NewsletterAdminView</text>
</a>
</g>
<!-- \\NewsletterAdminView&#45;&gt;\\WView -->
<g id="edge19" class="edge"><title>\\NewsletterAdminView&#45;&gt;\\WView</title>
<path fill="none" stroke="black" d="M200.366,-1321.25C166.313,-1325.65 127.075,-1330.72 99.2773,-1334.31"/>
<polygon fill="none" stroke="black" points="98.6875,-1330.86 89.2184,-1335.61 99.5844,-1337.8 98.6875,-1330.86"/>
</g>
<!-- \\PageAdminController -->
<g id="node16" class="node"><title>\\PageAdminController</title>
<a xlink:href="apps.page.admin.main.html" xlink:title="PageAdminController" target="_parent">
<polygon fill="none" stroke="black" points="345.5,-2032 200.5,-2032 200.5,-1996 345.5,-1996 345.5,-2032"/>
<text text-anchor="middle" x="273" y="-2011.2" font-family="Courier,monospace" font-size="11.00">PageAdminController</text>
</a>
</g>
<!-- \\PageAdminController&#45;&gt;\\WController -->
<g id="edge21" class="edge"><title>\\PageAdminController&#45;&gt;\\WController</title>
<path fill="none" stroke="black" d="M200.366,-2014C173.467,-2014 143.334,-2014 118.159,-2014"/>
<polygon fill="none" stroke="black" points="118.057,-2010.5 108.057,-2014 118.057,-2017.5 118.057,-2010.5"/>
</g>
<!-- \\PageAdminModel -->
<g id="node17" class="node"><title>\\PageAdminModel</title>
<a xlink:href="apps.page.admin.model.html" xlink:title="PageAdminModel" target="_parent">
<polygon fill="none" stroke="black" points="328.5,-1600 217.5,-1600 217.5,-1564 328.5,-1564 328.5,-1600"/>
<text text-anchor="middle" x="273" y="-1579.2" font-family="Courier,monospace" font-size="11.00">PageAdminModel</text>
</a>
</g>
<!-- \\PageAdminView -->
<g id="node18" class="node"><title>\\PageAdminView</title>
<a xlink:href="apps.page.admin.view.html" xlink:title="PageAdminView" target="_parent">
<polygon fill="none" stroke="black" points="325,-1168 221,-1168 221,-1132 325,-1132 325,-1168"/>
<text text-anchor="middle" x="273" y="-1147.2" font-family="Courier,monospace" font-size="11.00">PageAdminView</text>
</a>
</g>
<!-- \\PageAdminView&#45;&gt;\\WView -->
<g id="edge23" class="edge"><title>\\PageAdminView&#45;&gt;\\WView</title>
<path fill="none" stroke="black" d="M220.593,-1158.7C206.57,-1162.71 191.961,-1168.54 180,-1177 130.283,-1212.15 93.7458,-1275.24 75.6832,-1311.44"/>
<polygon fill="none" stroke="black" points="72.3118,-1310.37 71.0829,-1320.9 78.606,-1313.44 72.3118,-1310.37"/>
</g>
<!-- \\PageController -->
<g id="node19" class="node"><title>\\PageController</title>
<a xlink:href="apps.page.front.main.html" xlink:title="PageController" target="_parent">
<polygon fill="none" stroke="black" points="328.5,-1978 217.5,-1978 217.5,-1942 328.5,-1942 328.5,-1978"/>
<text text-anchor="middle" x="273" y="-1957.2" font-family="Courier,monospace" font-size="11.00">PageController</text>
</a>
</g>
<!-- \\PageController&#45;&gt;\\WController -->
<g id="edge25" class="edge"><title>\\PageController&#45;&gt;\\WController</title>
<path fill="none" stroke="black" d="M217.361,-1974.12C186.694,-1982.04 148.543,-1991.9 117.843,-1999.83"/>
<polygon fill="none" stroke="black" points="116.963,-1996.44 108.156,-2002.33 118.714,-2003.22 116.963,-1996.44"/>
</g>
<!-- \\PageModel -->
<g id="node20" class="node"><title>\\PageModel</title>
<a xlink:href="apps.page.front.model.html" xlink:title="PageModel" target="_parent">
<polygon fill="none" stroke="black" points="311.5,-1438 234.5,-1438 234.5,-1402 311.5,-1402 311.5,-1438"/>
<text text-anchor="middle" x="273" y="-1417.2" font-family="Courier,monospace" font-size="11.00">PageModel</text>
</a>
</g>
<!-- \\PageView -->
<g id="node21" class="node"><title>\\PageView</title>
<a xlink:href="apps.page.front.view.html" xlink:title="PageView" target="_parent">
<polygon fill="none" stroke="black" points="308.5,-1276 237.5,-1276 237.5,-1240 308.5,-1240 308.5,-1276"/>
<text text-anchor="middle" x="273" y="-1255.2" font-family="Courier,monospace" font-size="11.00">PageView</text>
</a>
</g>
<!-- \\PageView&#45;&gt;\\WView -->
<g id="edge27" class="edge"><title>\\PageView&#45;&gt;\\WView</title>
<path fill="none" stroke="black" d="M237.091,-1266.94C219.73,-1271.72 198.546,-1278.04 180,-1285 151.834,-1295.57 120.975,-1309.93 98.0241,-1321.19"/>
<polygon fill="none" stroke="black" points="96.4259,-1318.08 89.0158,-1325.65 99.5308,-1324.35 96.4259,-1318.08"/>
</g>
<!-- \\UserAdminController -->
<g id="node22" class="node"><title>\\UserAdminController</title>
<a xlink:href="apps.user.admin.main.html" xlink:title="UserAdminController" target="_parent">
<polygon fill="none" stroke="black" points="345.5,-1870 200.5,-1870 200.5,-1834 345.5,-1834 345.5,-1870"/>
<text text-anchor="middle" x="273" y="-1849.2" font-family="Courier,monospace" font-size="11.00">UserAdminController</text>
</a>
</g>
<!-- \\UserAdminController&#45;&gt;\\WController -->
<g id="edge29" class="edge"><title>\\UserAdminController&#45;&gt;\\WController</title>
<path fill="none" stroke="black" d="M200.372,-1868.54C193.231,-1871.49 186.302,-1874.95 180,-1879 136.065,-1907.23 99.3092,-1956.73 79.2957,-1987.3"/>
<polygon fill="none" stroke="black" points="76.3204,-1985.46 73.8675,-1995.76 82.2126,-1989.24 76.3204,-1985.46"/>
</g>
<!-- \\UserAdminModel -->
<g id="node23" class="node"><title>\\UserAdminModel</title>
<a xlink:href="apps.user.admin.model.html" xlink:title="UserAdminModel" target="_parent">
<polygon fill="none" stroke="black" points="328.5,-1114 217.5,-1114 217.5,-1078 328.5,-1078 328.5,-1114"/>
<text text-anchor="middle" x="273" y="-1093.2" font-family="Courier,monospace" font-size="11.00">UserAdminModel</text>
</a>
</g>
<!-- \\UserModel -->
<g id="node26" class="node"><title>\\UserModel</title>
<a xlink:href="apps.user.front.model.html" xlink:title="UserModel" target="_parent">
<polygon fill="none" stroke="black" points="100.5,-1114 23.5,-1114 23.5,-1078 100.5,-1078 100.5,-1114"/>
<text text-anchor="middle" x="62" y="-1093.2" font-family="Courier,monospace" font-size="11.00">UserModel</text>
</a>
</g>
<!-- \\UserAdminModel&#45;&gt;\\UserModel -->
<g id="edge31" class="edge"><title>\\UserAdminModel&#45;&gt;\\UserModel</title>
<path fill="none" stroke="black" d="M217.361,-1096C184.327,-1096 142.611,-1096 110.876,-1096"/>
<polygon fill="none" stroke="black" points="110.523,-1092.5 100.523,-1096 110.523,-1099.5 110.523,-1092.5"/>
</g>
<!-- \\UserAdminView -->
<g id="node24" class="node"><title>\\UserAdminView</title>
<a xlink:href="apps.user.admin.view.html" xlink:title="UserAdminView" target="_parent">
<polygon fill="none" stroke="black" points="325,-1546 221,-1546 221,-1510 325,-1510 325,-1546"/>
<text text-anchor="middle" x="273" y="-1525.2" font-family="Courier,monospace" font-size="11.00">UserAdminView</text>
</a>
</g>
<!-- \\UserAdminView&#45;&gt;\\WView -->
<g id="edge33" class="edge"><title>\\UserAdminView&#45;&gt;\\WView</title>
<path fill="none" stroke="black" d="M220.593,-1519.3C206.57,-1515.29 191.961,-1509.46 180,-1501 130.283,-1465.85 93.7458,-1402.76 75.6832,-1366.56"/>
<polygon fill="none" stroke="black" points="78.606,-1364.56 71.0829,-1357.1 72.3118,-1367.63 78.606,-1364.56"/>
</g>
<!-- \\UserController -->
<g id="node25" class="node"><title>\\UserController</title>
<a xlink:href="apps.user.front.main.html" xlink:title="UserController" target="_parent">
<polygon fill="none" stroke="black" points="328.5,-1816 217.5,-1816 217.5,-1780 328.5,-1780 328.5,-1816"/>
<text text-anchor="middle" x="273" y="-1795.2" font-family="Courier,monospace" font-size="11.00">UserController</text>
</a>
</g>
<!-- \\UserController&#45;&gt;\\WController -->
<g id="edge35" class="edge"><title>\\UserController&#45;&gt;\\WController</title>
<path fill="none" stroke="black" d="M217.319,-1807C204.2,-1810.99 190.858,-1816.73 180,-1825 124.13,-1867.56 88.5659,-1945.13 72.6728,-1986.42"/>
<polygon fill="none" stroke="black" points="69.3694,-1985.26 69.1423,-1995.85 75.9253,-1987.71 69.3694,-1985.26"/>
</g>
<!-- \\UserView -->
<g id="node27" class="node"><title>\\UserView</title>
<a xlink:href="apps.user.front.view.html" xlink:title="UserView" target="_parent">
<polygon fill="none" stroke="black" points="308.5,-1384 237.5,-1384 237.5,-1348 308.5,-1348 308.5,-1384"/>
<text text-anchor="middle" x="273" y="-1363.2" font-family="Courier,monospace" font-size="11.00">UserView</text>
</a>
</g>
<!-- \\UserView&#45;&gt;\\WView -->
<g id="edge37" class="edge"><title>\\UserView&#45;&gt;\\WView</title>
<path fill="none" stroke="black" d="M237.488,-1361.54C199.442,-1356.63 138.49,-1348.75 99.6214,-1343.73"/>
<polygon fill="none" stroke="black" points="99.6475,-1340.21 89.2815,-1342.4 98.7506,-1347.15 99.6475,-1340.21"/>
</g>
<!-- \\Pagination -->
<g id="node28" class="node"><title>\\Pagination</title>
<a xlink:href="helpers.pagination.pagination.html" xlink:title="Pagination" target="_parent">
<polygon fill="none" stroke="black" points="315,-1060 231,-1060 231,-1024 315,-1024 315,-1060"/>
<text text-anchor="middle" x="273" y="-1039.2" font-family="Courier,monospace" font-size="11.00">Pagination</text>
</a>
</g>
<!-- \\SortingHelper -->
<g id="node29" class="node"><title>\\SortingHelper</title>
<a xlink:href="helpers.SortingHelper.SortingHelper.html" xlink:title="SortingHelper" target="_parent">
<polygon fill="none" stroke="black" points="325,-1006 221,-1006 221,-970 325,-970 325,-1006"/>
<text text-anchor="middle" x="273" y="-985.2" font-family="Courier,monospace" font-size="11.00">SortingHelper</text>
</a>
</g>
<!-- \\WConfig -->
<g id="node30" class="node"><title>\\WConfig</title>
<a xlink:href="system.WCore.WConfig.html" xlink:title="WConfig" target="_parent">
<polygon fill="none" stroke="black" points="305,-952 241,-952 241,-916 305,-916 305,-952"/>
<text text-anchor="middle" x="273" y="-931.2" font-family="Courier,monospace" font-size="11.00">WConfig</text>
</a>
</g>
<!-- \\WDatabase -->
<g id="node32" class="node"><title>\\WDatabase</title>
<a xlink:href="system.WCore.WDatabase.html" xlink:title="WDatabase" target="_parent">
<polygon fill="none" stroke="black" points="311.5,-898 234.5,-898 234.5,-862 311.5,-862 311.5,-898"/>
<text text-anchor="middle" x="273" y="-877.2" font-family="Courier,monospace" font-size="11.00">WDatabase</text>
</a>
</g>
<!-- \\PDO -->
<g id="node68" class="node"><title>\\PDO</title>
<ellipse fill="none" stroke="black" cx="62" cy="-18" rx="31.6951" ry="18"/>
<text text-anchor="middle" x="62" y="-14.3" font-family="Times New Roman,serif" font-size="14.00" fill="gray">\PDO</text>
</g>
<!-- \\WDatabase&#45;&gt;\\PDO -->
<g id="edge39" class="edge"><title>\\WDatabase&#45;&gt;\\PDO</title>
<path fill="none" stroke="black" d="M234.284,-878.598C215.082,-875.794 193.088,-868.961 180,-853 64.9926,-712.751 210.741,-189.468 108,-40 105.683,-36.6295 102.699,-33.755 99.3705,-31.3078"/>
<polygon fill="none" stroke="black" points="100.955,-28.1776 90.5723,-26.0663 97.372,-34.1913 100.955,-28.1776"/>
</g>
<!-- \\WHelper -->
<g id="node33" class="node"><title>\\WHelper</title>
<a xlink:href="system.WCore.WHelper.html" xlink:title="WHelper" target="_parent">
<polygon fill="none" stroke="black" points="305,-844 241,-844 241,-808 305,-808 305,-844"/>
<text text-anchor="middle" x="273" y="-823.2" font-family="Courier,monospace" font-size="11.00">WHelper</text>
</a>
</g>
<!-- \\WLang -->
<g id="node34" class="node"><title>\\WLang</title>
<a xlink:href="system.WCore.WLang.html" xlink:title="WLang" target="_parent">
<polygon fill="none" stroke="black" points="300,-790 246,-790 246,-754 300,-754 300,-790"/>
<text text-anchor="middle" x="273" y="-769.2" font-family="Courier,monospace" font-size="11.00">WLang</text>
</a>
</g>
<!-- \\WMain -->
<g id="node35" class="node"><title>\\WMain</title>
<a xlink:href="system.WCore.WMain.html" xlink:title="WMain" target="_parent">
<polygon fill="none" stroke="black" points="300,-736 246,-736 246,-700 300,-700 300,-736"/>
<text text-anchor="middle" x="273" y="-715.2" font-family="Courier,monospace" font-size="11.00">WMain</text>
</a>
</g>
<!-- \\WNote -->
<g id="node36" class="node"><title>\\WNote</title>
<a xlink:href="system.WCore.WNote.html" xlink:title="WNote" target="_parent">
<polygon fill="none" stroke="black" points="300,-682 246,-682 246,-646 300,-646 300,-682"/>
<text text-anchor="middle" x="273" y="-661.2" font-family="Courier,monospace" font-size="11.00">WNote</text>
</a>
</g>
<!-- \\WRequest -->
<g id="node37" class="node"><title>\\WRequest</title>
<a xlink:href="system.WCore.WRequest.html" xlink:title="WRequest" target="_parent">
<polygon fill="none" stroke="black" points="308.5,-628 237.5,-628 237.5,-592 308.5,-592 308.5,-628"/>
<text text-anchor="middle" x="273" y="-607.2" font-family="Courier,monospace" font-size="11.00">WRequest</text>
</a>
</g>
<!-- \\WRoute -->
<g id="node38" class="node"><title>\\WRoute</title>
<a xlink:href="system.WCore.WRoute.html" xlink:title="WRoute" target="_parent">
<polygon fill="none" stroke="black" points="301.5,-574 244.5,-574 244.5,-538 301.5,-538 301.5,-574"/>
<text text-anchor="middle" x="273" y="-553.2" font-family="Courier,monospace" font-size="11.00">WRoute</text>
</a>
</g>
<!-- \\WSession -->
<g id="node39" class="node"><title>\\WSession</title>
<a xlink:href="system.WCore.WSession.html" xlink:title="WSession" target="_parent">
<polygon fill="none" stroke="black" points="308.5,-520 237.5,-520 237.5,-484 308.5,-484 308.5,-520"/>
<text text-anchor="middle" x="273" y="-499.2" font-family="Courier,monospace" font-size="11.00">WSession</text>
</a>
</g>
<!-- \\WSystem -->
<g id="node40" class="node"><title>\\WSystem</title>
<a xlink:href="system.WCore.WSystem.html" xlink:title="WSystem" target="_parent">
<polygon fill="none" stroke="black" points="305,-466 241,-466 241,-430 305,-430 305,-466"/>
<text text-anchor="middle" x="273" y="-445.2" font-family="Courier,monospace" font-size="11.00">WSystem</text>
</a>
</g>
<!-- \\wtFile -->
<g id="node42" class="node"><title>\\wtFile</title>
<a xlink:href="system.WFile.WFile.html" xlink:title="wtFile" target="_parent">
<polygon fill="none" stroke="black" points="301.5,-412 244.5,-412 244.5,-376 301.5,-376 301.5,-412"/>
<text text-anchor="middle" x="273" y="-391.2" font-family="Courier,monospace" font-size="11.00">wtFile</text>
</a>
</g>
<!-- \\wtJSON -->
<g id="node43" class="node"><title>\\wtJSON</title>
<a xlink:href="system.WFile.WJSON.html" xlink:title="wtJSON" target="_parent">
<polygon fill="none" stroke="black" points="301.5,-358 244.5,-358 244.5,-322 301.5,-322 301.5,-358"/>
<text text-anchor="middle" x="273" y="-337.2" font-family="Courier,monospace" font-size="11.00">wtJSON</text>
</a>
</g>
<!-- \\WXML -->
<g id="node44" class="node"><title>\\WXML</title>
<a xlink:href="system.WFile.WXML.html" xlink:title="WXML" target="_parent">
<polygon fill="none" stroke="black" points="300,-304 246,-304 246,-268 300,-268 300,-304"/>
<text text-anchor="middle" x="273" y="-283.2" font-family="Courier,monospace" font-size="11.00">WXML</text>
</a>
</g>
<!-- \\WTemplate -->
<g id="node45" class="node"><title>\\WTemplate</title>
<a xlink:href="system.WTemplate.WTemplate.html" xlink:title="WTemplate" target="_parent">
<polygon fill="none" stroke="black" points="311.5,-250 234.5,-250 234.5,-214 311.5,-214 311.5,-250"/>
<text text-anchor="middle" x="273" y="-229.2" font-family="Courier,monospace" font-size="11.00">WTemplate</text>
</a>
</g>
<!-- \\WTemplateCompiler -->
<g id="node46" class="node"><title>\\WTemplateCompiler</title>
<a xlink:href="system.WTemplate.WTemplateCompiler.html" xlink:title="WTemplateCompiler" target="_parent">
<polygon fill="none" stroke="black" points="338.5,-196 207.5,-196 207.5,-160 338.5,-160 338.5,-196"/>
<text text-anchor="middle" x="273" y="-175.2" font-family="Courier,monospace" font-size="11.00">WTemplateCompiler</text>
</a>
</g>
<!-- \\WTemplateFile -->
<g id="node47" class="node"><title>\\WTemplateFile</title>
<a xlink:href="system.WTemplate.WTemplateFile.html" xlink:title="WTemplateFile" target="_parent">
<polygon fill="none" stroke="black" points="325,-142 221,-142 221,-106 325,-106 325,-142"/>
<text text-anchor="middle" x="273" y="-121.2" font-family="Courier,monospace" font-size="11.00">WTemplateFile</text>
</a>
</g>
<!-- \\WTemplateParser -->
<g id="node48" class="node"><title>\\WTemplateParser</title>
<a xlink:href="system.WTemplate.WTemplateParser.html" xlink:title="WTemplateParser" target="_parent">
<polygon fill="none" stroke="black" points="332,-88 214,-88 214,-52 332,-52 332,-88"/>
<text text-anchor="middle" x="273" y="-67.2" font-family="Courier,monospace" font-size="11.00">WTemplateParser</text>
</a>
</g>
</g>
</svg>
